<svg width="44" height="44" viewBox="0 0 44 44" fill="none" xmlns="http://www.w3.org/2000/svg">
<path d="M21.5048 11.92C21.6695 11.912 21.8346 11.9079 22 11.9079C22.1653 11.9079 22.3304 11.912 22.4952 11.92L23.0195 1.24719C22.6803 1.23053 22.3403 1.22217 22 1.22217C21.6596 1.22217 21.3197 1.23053 20.9805 1.24719L21.5048 11.92Z" fill="url(#paint0_linear_3149_5494)"/>
<path d="M19.5478 12.2103C19.8682 12.1301 20.1924 12.0656 20.5191 12.0171L18.9512 1.44706C18.2785 1.54685 17.6111 1.6796 16.9514 1.84485L19.5478 12.2103Z" fill="url(#paint1_linear_3149_5494)"/>
<path d="M23.4808 12.0171C23.8075 12.0656 24.1317 12.1301 24.4521 12.2103L27.0485 1.84485C26.3888 1.67961 25.7214 1.54685 25.0487 1.44706L23.4808 12.0171Z" fill="url(#paint2_linear_3149_5494)"/>
<path d="M18.1379 12.6761C18.2906 12.6128 18.4447 12.5534 18.6001 12.4978L15.0001 2.43675C14.6804 2.55118 14.3631 2.67354 14.0486 2.80378C13.7342 2.93403 13.4233 3.07184 13.1163 3.21705L17.6851 12.8768C17.8341 12.8063 17.9851 12.7394 18.1379 12.6761Z" fill="url(#paint3_linear_3149_5494)"/>
<path d="M25.3998 12.4978C25.5552 12.5534 25.7093 12.6128 25.862 12.6761C26.0148 12.7394 26.1658 12.8063 26.3149 12.8768L30.8836 3.21706C30.5766 3.07184 30.2657 2.93403 29.9513 2.80378C29.6369 2.67354 29.3196 2.55118 28.9998 2.43675L25.3998 12.4978Z" fill="url(#paint4_linear_3149_5494)"/>
<path d="M15.9881 13.8939C16.2534 13.6972 16.5283 13.5135 16.8116 13.3437L11.318 4.17825C10.7347 4.52789 10.1689 4.90595 9.62263 5.31107L15.9881 13.8939Z" fill="url(#paint5_linear_3149_5494)"/>
<path d="M27.1883 13.3437C27.4716 13.5135 27.7465 13.6972 28.0118 13.8939L34.3773 5.31108C33.831 4.90595 33.2652 4.52789 32.6819 4.17826L27.1883 13.3437Z" fill="url(#paint6_linear_3149_5494)"/>
<path d="M14.8638 14.8638C14.9807 14.7469 15.1003 14.633 15.2225 14.5222L8.04642 6.60463C7.79478 6.83272 7.5485 7.06719 7.30784 7.30784C7.06719 7.5485 6.83272 7.79478 6.60463 8.04642L14.5222 15.2225C14.633 15.1003 14.7469 14.9807 14.8638 14.8638Z" fill="url(#paint7_linear_3149_5494)"/>
<path d="M28.7774 14.5222C28.8996 14.633 29.0192 14.7469 29.1361 14.8638C29.253 14.9807 29.3669 15.1003 29.4777 15.2226L37.3953 8.04642C37.1672 7.79478 36.9327 7.5485 36.6921 7.30784C36.4514 7.06719 36.2051 6.83272 35.9535 6.60463L28.7774 14.5222Z" fill="url(#paint8_linear_3149_5494)"/>
<path d="M13.3437 16.8116C13.5135 16.5283 13.6972 16.2534 13.8939 15.9881L5.31108 9.62263C4.90595 10.1689 4.52789 10.7347 4.17826 11.318L13.3437 16.8116Z" fill="url(#paint9_linear_3149_5494)"/>
<path d="M30.106 15.9881C30.3028 16.2534 30.4864 16.5283 30.6562 16.8116L39.8217 11.318C39.472 10.7347 39.094 10.1689 38.6888 9.62263L30.106 15.9881Z" fill="url(#paint10_linear_3149_5494)"/>
<path d="M12.6761 18.1379C12.7394 17.9851 12.8063 17.8341 12.8768 17.6851L3.21706 13.1163C3.07184 13.4233 2.93403 13.7342 2.80378 14.0486C2.67354 14.3631 2.55118 14.6804 2.43675 15.0001L12.4978 18.6001C12.5534 18.4447 12.6128 18.2906 12.6761 18.1379Z" fill="url(#paint11_linear_3149_5494)"/>
<path d="M31.1231 17.6851C31.1936 17.8341 31.2606 17.9851 31.3238 18.1379C31.3871 18.2906 31.4465 18.4447 31.5021 18.6001L41.5632 15.0001C41.4487 14.6804 41.3264 14.3631 41.1961 14.0487C41.0659 13.7342 40.9281 13.4233 40.7828 13.1163L31.1231 17.6851Z" fill="url(#paint12_linear_3149_5494)"/>
<path d="M12.0171 20.5191C12.0656 20.1924 12.1301 19.8682 12.2103 19.5478L1.84485 16.9514C1.67961 17.6111 1.54685 18.2785 1.44706 18.9512L12.0171 20.5191Z" fill="url(#paint13_linear_3149_5494)"/>
<path d="M31.7896 19.5478C31.8698 19.8682 31.9343 20.1924 31.9828 20.5191L42.5528 18.9512C42.4531 18.2785 42.3203 17.6111 42.1551 16.9514L31.7896 19.5478Z" fill="url(#paint14_linear_3149_5494)"/>
<path d="M11.9079 22C11.9079 21.8346 11.912 21.6695 11.92 21.5048L1.24719 20.9805C1.23053 21.3197 1.22217 21.6596 1.22217 22C1.22217 24.7285 1.7596 27.4304 2.80378 29.9512C3.84796 32.4721 5.37845 34.7627 7.30784 36.6921C9.23722 38.6214 11.5278 40.1519 14.0486 41.1961C16.5695 42.2403 19.2714 42.7777 22 42.7777C24.7285 42.7777 27.4304 42.2403 29.9513 41.1961C32.4721 40.1519 34.7627 38.6214 36.6921 36.6921C38.6214 34.7627 40.1519 32.4721 41.1961 29.9512C42.2403 27.4304 42.7777 24.7285 42.7777 22C42.7777 21.6596 42.7694 21.3197 42.7527 20.9805L32.0799 21.5048C32.0879 21.6695 32.092 21.8347 32.092 22C32.092 23.3253 31.831 24.6376 31.3238 25.862C30.8166 27.0864 30.0733 28.199 29.1361 29.1361C28.199 30.0733 27.0864 30.8166 25.862 31.3238C24.6376 31.831 23.3253 32.092 22 32.092C20.6747 32.092 19.3623 31.831 18.1379 31.3238C16.9135 30.8166 15.8009 30.0733 14.8638 29.1361C13.9266 28.199 13.1833 27.0864 12.6761 25.862C12.1689 24.6376 11.9079 23.3253 11.9079 22Z" fill="url(#paint15_linear_3149_5494)"/>
<path d="M22.0015 11.9076C21.8361 11.9076 21.671 11.9117 21.5063 11.9198L21.3072 7.86673C21.7675 7.66819 22.2394 7.49144 22.7218 7.33787L22.4967 11.9198C22.3319 11.9117 22.1668 11.9076 22.0015 11.9076Z" fill="#5165E1"/>
<path d="M24.2354 6.94004L23.4823 12.0169C23.809 12.0654 24.1332 12.1298 24.4536 12.2101L25.8355 6.69334C25.2933 6.74792 24.7595 6.83066 24.2354 6.94004Z" fill="#5165E1"/>
<path d="M27.506 6.61572L25.4014 12.4976C25.5567 12.5532 25.7108 12.6126 25.8635 12.6759C26.0162 12.7391 26.1673 12.8061 26.3164 12.8766L29.2267 6.72326C28.6619 6.65622 28.0878 6.61983 27.506 6.61572Z" fill="#5165E1"/>
<path d="M30.972 7.03336L27.1898 13.3435C27.4731 13.5133 27.748 13.6969 28.0133 13.8937L32.7116 7.5588C32.1466 7.3507 31.5659 7.17478 30.972 7.03336Z" fill="#5165E1"/>
<path d="M34.413 8.30574L28.7789 14.522C28.9011 14.6328 29.0207 14.7467 29.1376 14.8636C29.2545 14.9804 29.3684 15.1001 29.4792 15.2223L36.0423 9.27385C35.5212 8.9191 34.9772 8.59548 34.413 8.30574Z" fill="#5165E1"/>
<path d="M37.5655 10.4567L30.1075 15.9879C30.3043 16.2532 30.4879 16.528 30.6577 16.8114L38.9491 11.8417C38.5176 11.3513 38.0554 10.8886 37.5655 10.4567Z" fill="#5165E1"/>
<path d="M40.1606 13.4111L31.1246 17.6848C31.1951 17.8339 31.262 17.9849 31.3253 18.1376C31.3886 18.2904 31.448 18.4445 31.5036 18.5998L41.1696 15.1413C40.8703 14.5412 40.5328 13.9634 40.1606 13.4111Z" fill="#5165E1"/>
<path d="M41.9496 17.003L31.7911 19.5475C31.8713 19.868 31.9358 20.1922 31.9843 20.5189L42.4794 18.9621C42.3453 18.2923 42.1676 17.6383 41.9496 17.003Z" fill="#5165E1"/>
<path d="M42.746 20.9806L32.0814 21.5045C32.0894 21.6693 32.0935 21.8344 32.0935 21.9997C32.0935 23.325 31.8325 24.6374 31.3253 25.8618C30.8181 27.0862 30.0747 28.1988 29.1376 29.1359C28.2004 30.073 27.0879 30.8164 25.8635 31.3236C24.6391 31.8308 23.3267 32.0918 22.0014 32.0918C20.6761 32.0918 19.3638 31.8308 18.1394 31.3236C16.9149 30.8164 15.8024 30.073 14.8653 29.1359C13.9281 28.1988 13.1848 27.0862 12.6776 25.8618C12.4769 25.3774 12.3148 24.8793 12.1922 24.372C13.3329 31.7422 19.705 37.3841 27.3948 37.3841C35.8914 37.3841 42.7792 30.4963 42.7792 21.9997C42.7792 21.6573 42.768 21.3175 42.746 20.9806Z" fill="#5165E1"/>
<path d="M12.1921 19.6276C12.1986 19.6009 12.2052 19.5742 12.2119 19.5475L12.205 19.5458C12.2006 19.5731 12.1963 19.6003 12.1921 19.6276Z" fill="#5165E1"/>
<path d="M12.3958 18.5628L12.4993 18.5998C12.5549 18.4445 12.6143 18.2904 12.6776 18.1376C12.7409 17.9849 12.8078 17.8339 12.8784 17.6848L12.6549 17.5791C12.5581 17.9027 12.4715 18.2306 12.3958 18.5628Z" fill="#5165E1"/>
<path d="M12.9861 16.5961L13.3452 16.8114C13.515 16.528 13.6987 16.2532 13.8955 15.9879L13.3934 15.6155C13.2468 15.9366 13.1109 16.2637 12.9861 16.5961Z" fill="#5165E1"/>
<path d="M13.8816 14.6402L14.5237 15.2223C14.6345 15.1001 14.7484 14.9804 14.8653 14.8635C14.9822 14.7467 15.1018 14.6328 15.224 14.522L14.4556 13.6742C14.2529 13.9885 14.0614 14.3107 13.8816 14.6402Z" fill="#5165E1"/>
<path d="M15.1211 12.7227L15.9896 13.8937C16.2549 13.6969 16.5298 13.5133 16.8131 13.3435L15.8837 11.7929C15.6177 12.0926 15.3633 12.4027 15.1211 12.7227Z" fill="#5165E1"/>
<path d="M16.7488 10.8938L17.6865 12.8766C17.8357 12.8061 17.9866 12.7391 18.1394 12.6759C18.2921 12.6126 18.4462 12.5532 18.6015 12.4976L17.721 10.0367C17.3849 10.3088 17.0606 10.5948 16.7488 10.8938Z" fill="#5165E1"/>
<path d="M18.8041 9.23534L19.5493 12.2101C19.8697 12.1298 20.1939 12.0654 20.5207 12.0169L19.9998 8.5059C19.5895 8.73122 19.1906 8.97474 18.8041 9.23534Z" fill="#5165E1"/>
<defs>
<linearGradient id="paint0_linear_3149_5494" x1="-4.80339" y1="-3.55673" x2="40.3883" y2="42.7777" gradientUnits="userSpaceOnUse">
<stop offset="0.0363151" stop-color="#3B53F1"/>
<stop offset="0.524591" stop-color="#6D80FD"/>
<stop offset="1" stop-color="#C9D0FE"/>
</linearGradient>
<linearGradient id="paint1_linear_3149_5494" x1="-4.80339" y1="-3.55673" x2="40.3883" y2="42.7777" gradientUnits="userSpaceOnUse">
<stop offset="0.0363151" stop-color="#3B53F1"/>
<stop offset="0.524591" stop-color="#6D80FD"/>
<stop offset="1" stop-color="#C9D0FE"/>
</linearGradient>
<linearGradient id="paint2_linear_3149_5494" x1="-4.80339" y1="-3.55673" x2="40.3883" y2="42.7777" gradientUnits="userSpaceOnUse">
<stop offset="0.0363151" stop-color="#3B53F1"/>
<stop offset="0.524591" stop-color="#6D80FD"/>
<stop offset="1" stop-color="#C9D0FE"/>
</linearGradient>
<linearGradient id="paint3_linear_3149_5494" x1="-4.80339" y1="-3.55673" x2="40.3883" y2="42.7777" gradientUnits="userSpaceOnUse">
<stop offset="0.0363151" stop-color="#3B53F1"/>
<stop offset="0.524591" stop-color="#6D80FD"/>
<stop offset="1" stop-color="#C9D0FE"/>
</linearGradient>
<linearGradient id="paint4_linear_3149_5494" x1="-4.80339" y1="-3.55673" x2="40.3883" y2="42.7777" gradientUnits="userSpaceOnUse">
<stop offset="0.0363151" stop-color="#3B53F1"/>
<stop offset="0.524591" stop-color="#6D80FD"/>
<stop offset="1" stop-color="#C9D0FE"/>
</linearGradient>
<linearGradient id="paint5_linear_3149_5494" x1="-4.80339" y1="-3.55673" x2="40.3883" y2="42.7777" gradientUnits="userSpaceOnUse">
<stop offset="0.0363151" stop-color="#3B53F1"/>
<stop offset="0.524591" stop-color="#6D80FD"/>
<stop offset="1" stop-color="#C9D0FE"/>
</linearGradient>
<linearGradient id="paint6_linear_3149_5494" x1="-4.80339" y1="-3.55673" x2="40.3883" y2="42.7777" gradientUnits="userSpaceOnUse">
<stop offset="0.0363151" stop-color="#3B53F1"/>
<stop offset="0.524591" stop-color="#6D80FD"/>
<stop offset="1" stop-color="#C9D0FE"/>
</linearGradient>
<linearGradient id="paint7_linear_3149_5494" x1="-4.80339" y1="-3.55673" x2="40.3883" y2="42.7777" gradientUnits="userSpaceOnUse">
<stop offset="0.0363151" stop-color="#3B53F1"/>
<stop offset="0.524591" stop-color="#6D80FD"/>
<stop offset="1" stop-color="#C9D0FE"/>
</linearGradient>
<linearGradient id="paint8_linear_3149_5494" x1="-4.80339" y1="-3.55673" x2="40.3883" y2="42.7777" gradientUnits="userSpaceOnUse">
<stop offset="0.0363151" stop-color="#3B53F1"/>
<stop offset="0.524591" stop-color="#6D80FD"/>
<stop offset="1" stop-color="#C9D0FE"/>
</linearGradient>
<linearGradient id="paint9_linear_3149_5494" x1="-4.80339" y1="-3.55673" x2="40.3883" y2="42.7777" gradientUnits="userSpaceOnUse">
<stop offset="0.0363151" stop-color="#3B53F1"/>
<stop offset="0.524591" stop-color="#6D80FD"/>
<stop offset="1" stop-color="#C9D0FE"/>
</linearGradient>
<linearGradient id="paint10_linear_3149_5494" x1="-4.80339" y1="-3.55673" x2="40.3883" y2="42.7777" gradientUnits="userSpaceOnUse">
<stop offset="0.0363151" stop-color="#3B53F1"/>
<stop offset="0.524591" stop-color="#6D80FD"/>
<stop offset="1" stop-color="#C9D0FE"/>
</linearGradient>
<linearGradient id="paint11_linear_3149_5494" x1="-4.80339" y1="-3.55673" x2="40.3883" y2="42.7777" gradientUnits="userSpaceOnUse">
<stop offset="0.0363151" stop-color="#3B53F1"/>
<stop offset="0.524591" stop-color="#6D80FD"/>
<stop offset="1" stop-color="#C9D0FE"/>
</linearGradient>
<linearGradient id="paint12_linear_3149_5494" x1="-4.80339" y1="-3.55673" x2="40.3883" y2="42.7777" gradientUnits="userSpaceOnUse">
<stop offset="0.0363151" stop-color="#3B53F1"/>
<stop offset="0.524591" stop-color="#6D80FD"/>
<stop offset="1" stop-color="#C9D0FE"/>
</linearGradient>
<linearGradient id="paint13_linear_3149_5494" x1="-4.80339" y1="-3.55673" x2="40.3883" y2="42.7777" gradientUnits="userSpaceOnUse">
<stop offset="0.0363151" stop-color="#3B53F1"/>
<stop offset="0.524591" stop-color="#6D80FD"/>
<stop offset="1" stop-color="#C9D0FE"/>
</linearGradient>
<linearGradient id="paint14_linear_3149_5494" x1="-4.80339" y1="-3.55673" x2="40.3883" y2="42.7777" gradientUnits="userSpaceOnUse">
<stop offset="0.0363151" stop-color="#3B53F1"/>
<stop offset="0.524591" stop-color="#6D80FD"/>
<stop offset="1" stop-color="#C9D0FE"/>
</linearGradient>
<linearGradient id="paint15_linear_3149_5494" x1="-4.80339" y1="-3.55673" x2="40.3883" y2="42.7777" gradientUnits="userSpaceOnUse">
<stop offset="0.0363151" stop-color="#3B53F1"/>
<stop offset="0.524591" stop-color="#6D80FD"/>
<stop offset="1" stop-color="#C9D0FE"/>
</linearGradient>
</defs>
</svg>
